# xmcd CD database file
#
# Track frame offsets:
#	150
#	20710
#	36421
#	50312
#	71747
#	92292
#	107968
#	121902
#	142859
#
# Disc length: 1972 seconds
#
# Revision: 2
# Processed by: cddbd v1.5.2PL0 Copyright (c) Steve Scherf et al.
# Submitted via: CDex 1.70beta3
#
DISCID=7607b209
DTITLE=PAw LABORATORY - VIDEO GAME MIKUTORICA Vol.01
DYEAR=2009
DGENRE=Techno
TTITLE0=ロボットバンンドみくまく [Rev2.0]
TTITLE1=傷だらけのブルームーン
TTITLE2=サイコソルジャー
TTITLE3=ワンダーモモ
TTITLE4=ロボットバンンドみくまく [Less vo.]
TTITLE5=傷だらけのブルームーン [Less vo.]
TTITLE6=サイコソルジャー [Less vo.]
TTITLE7=ワンダーモモ [Less vo.]
TTITLE8=PSYCHO SOLDIER [LUKALUKA ENGLISH VERSION]
EXTD=YEAR: 2009
EXTT0=
EXTT1=
EXTT2=
EXTT3=
EXTT4=
EXTT5=
EXTT6=
EXTT7=
EXTT8=
PLAYORDER=
